<svg xmlns="http://www.w3.org/2000/svg" width="500" viewBox="0 0 375 375" height="500" version="1.0"><path d="M31.281 169.879h21.125c5.676 0 10.3 1.516 13.875 4.547 3.582 3.032 5.375 7.36 5.375 12.985 0 4.343-1.09 7.984-3.266 10.922-2.168 2.937-5.11 5.007-8.828 6.203l20.328 24.406H62.78l-18.046-23.344v23.344H31.281Zm13.453 26.205h1.578c1.238 0 2.285-.02 3.14-.063.864-.05 1.845-.219 2.938-.5 1.102-.289 1.989-.695 2.657-1.219.664-.53 1.238-1.297 1.718-2.297.477-1.007.719-2.226.719-3.656 0-1.426-.242-2.64-.719-3.64-.48-1.008-1.054-1.774-1.718-2.297-.668-.532-1.555-.938-2.657-1.219-1.093-.29-2.074-.457-2.937-.5a54.131 54.131 0 0 0-3.14-.078h-1.579Zm0 0" fill="#0e4644"/><path d="M113.044 169.879v11.813H92.7v11.734h19.484v11.813H92.7v11.89h20.344v11.813H79.247v-59.063Zm0 0" fill="#0e4644"/><path d="m147.475 169.879 23.843 59.063h-14.47l-4.358-11.813h-22.484l-4.375 11.813h-14.453l23.844-59.063Zm.422 35.438-6.579-17.188h-.14l-6.594 17.188Zm0 0" fill="#0e4644"/><path d="M170.307 169.879h17.11c8.206 0 15.222 2.81 21.046 8.422 5.82 5.606 8.734 12.633 8.734 21.078 0 8.493-2.902 15.543-8.703 21.157-5.793 5.605-12.82 8.406-21.078 8.406h-17.11Zm13.453 47.033h2.078c4.914 0 8.938-1.656 12.063-4.969 3.125-3.32 4.71-7.488 4.765-12.5 0-5.008-1.562-9.18-4.687-12.516-3.125-3.343-7.172-5.015-12.14-5.015h-2.079Zm0 0" fill="#0e4644"/><path d="M227.992 213.614c2.29 0 4.235.805 5.828 2.406 1.602 1.594 2.407 3.54 2.407 5.828 0 2.25-.805 4.18-2.407 5.782-1.593 1.593-3.539 2.39-5.828 2.39-2.242 0-4.164-.797-5.765-2.39-1.594-1.602-2.391-3.532-2.391-5.782 0-2.289.797-4.234 2.39-5.828 1.602-1.601 3.524-2.406 5.766-2.406Zm62.363 15.328-2.797-35.016h-.36l-12.092 34.657h-8.016l-12.11-34.657h-.36l-2.78 35.016h-13.47l5.298-59.063h14.328l13.093 34.079 13.11-34.078h14.311l5.298 59.062Zm49.399-59.063v11.813H319.41v11.734h19.484v11.813H319.41v11.89h20.344v11.813h-33.797v-59.063Zm0 0" fill="#232323"/><path d="M103.63 127.322v12.812c-1.531 7.024-4.875 12.336-10.031 15.938-5.149 3.605-10.899 5.406-17.25 5.406-7.969 0-14.762-2.984-20.375-8.953-5.607-5.969-8.407-13.176-8.407-21.625 0-8.594 2.742-15.848 8.234-21.766 5.488-5.914 12.336-8.875 20.547-8.875 9.594 0 17.18 3.368 22.765 10.094l-8.796 9.672c-3.157-5.063-7.547-7.594-13.172-7.594-4.157 0-7.703 1.805-10.64 5.407-2.93 3.605-4.392 7.96-4.392 13.062 0 5.012 1.461 9.297 4.391 12.86 2.938 3.554 6.485 5.328 10.64 5.328 3.438 0 6.43-1.036 8.985-3.11 2.55-2.082 3.828-4.836 3.828-8.265h-13.61v-10.391Zm16.102-25.985V160.4h-13.453v-59.063Zm1.584 11.813v-11.813h41.516v11.813H148.8v47.25h-13.452v-47.25Zm56.546 23.547V160.4h-13.453v-59.063h13.453v23.547h19.047v-23.547h13.469V160.4h-13.47v-23.703Zm83.196-35.36v38.079c0 7.261-1.961 12.757-5.876 16.484-3.917 3.719-9.648 5.578-17.187 5.578-7.531 0-13.258-1.86-17.172-5.578-3.918-3.727-5.875-9.223-5.875-16.484v-38.078h13.469v34.14c0 4.781.75 8.106 2.25 9.969 1.5 1.855 3.941 2.781 7.328 2.781 3.395 0 5.844-.926 7.344-2.781 1.5-1.863 2.25-5.188 2.25-9.969v-34.14Zm4.578 0h18.328c5.531 0 9.941 1.184 13.234 3.547 3.301 2.356 4.953 6.184 4.953 11.485 0 5.918-2.46 10.14-7.374 12.672 8.394 1.48 12.593 6.445 12.593 14.89 0 4.969-1.718 8.961-5.156 11.969-3.438 3-8.164 4.5-14.172 4.5h-22.406Zm13.453 23.127h1.078c3.008 0 5.254-.524 6.735-1.579 1.476-1.05 2.218-2.77 2.218-5.156 0-4.008-2.984-6.016-8.953-6.016h-1.078Zm0 25.562h4.234c6.582 0 9.875-2.195 9.875-6.594 0-2.625-.824-4.508-2.468-5.656-1.649-1.145-4.118-1.719-7.407-1.719h-4.234Zm0 0" fill="#0e4644"/></svg>